<?xml version='1.0' encoding='iso-8859-1'?>
<!DOCTYPE svg PUBLIC '-//W3C//DTD SVG 1.1//EN' 'http://www.w3.org/Graphics/SVG/1.1/DTD/svg11.dtd'>
<svg version="1.1" xmlns="http://www.w3.org/2000/svg" viewBox="0 0 460.039 460.039" xmlns:xlink="http://www.w3.org/1999/xlink" enable-background="new 0 0 460.039 460.039">
  <path d="m435.386,129.639c-15.898-15.898-37.035-24.654-59.519-24.654-8.411,0-16.637,1.226-24.468,3.593 8.669-28.754 1.662-61.264-21.019-83.946-32.819-32.817-86.218-32.818-119.037,0-24.191,24.192-34.843,71.713-31.663,141.243 1.256,27.443 4.43,52.708 7.122,70.328l-179.15,179.15c-10.203,10.204-10.203,26.808 1.33227e-14,37.013 5.103,5.102 11.805,7.653 18.507,7.653s13.405-2.551 18.507-7.653l178.931-178.932c17.487,2.835 42.55,6.185 69.845,7.558 8.42,0.424 16.513,0.635 24.296,0.635 56.227,0 95.749-11.053 117.648-32.952 15.898-15.898 24.653-37.035 24.653-59.519s-8.755-43.619-24.653-59.517zm-143.102,38.095c3.876,3.874 10.156,3.874 14.032,0 2.509-2.509 5.844-3.89 9.392-3.89 3.547,0 6.882,1.382 9.391,3.89 5.179,5.178 5.179,13.604 0,18.782-8.281,8.283-35.47,7.47-55.541,4.033-3.287-20.291-4.039-47.646 3.944-55.629 2.509-2.509 5.844-3.89 9.392-3.89 3.547,0 6.882,1.382 9.391,3.89 2.509,2.509 3.89,5.844 3.89,9.391 0,3.548-1.382,6.883-3.89,9.391-1.937,1.937-2.906,4.477-2.906,7.016 0,2.539 0.969,5.079 2.905,7.016zm19.73-39.204c-1.486-2.745-3.381-5.325-5.698-7.642-6.256-6.256-14.575-9.702-23.423-9.702-8.848,0-17.167,3.445-23.424,9.702-9.098,9.098-12.985,25.216-11.885,49.273 0.745,16.284 3.594,30.255 3.715,30.842 0.791,3.841 3.77,6.855 7.601,7.691 0.583,0.127 14.454,3.123 30.706,3.942 2.68,0.135 5.271,0.202 7.771,0.202 19.56,0 33.585-4.123 41.753-12.29 6.256-6.257 9.702-14.575 9.702-23.423 0-8.848-3.445-17.166-9.702-23.423-2.317-2.317-4.897-4.212-7.642-5.698 12.699-4.223 27.273-1.298 37.363,8.792 14.226,14.225 14.226,37.372 0,51.597-23.402,23.405-94.165,15.728-126.687,9.554-5.887-32.838-13.158-104.16 9.461-126.78 14.228-14.226 37.373-14.223 51.597,0 10.09,10.089 13.015,24.665 8.792,37.363zm-281.379,309.805c-2.467,2.468-6.484,2.467-8.951,0.001-2.467-2.468-2.467-6.484 0-8.951l169.249-169.248c0.109,0.546 0.18,0.897 0.207,1.028 0.791,3.841 3.77,6.855 7.601,7.691 0.138,0.03 0.522,0.113 1.132,0.241l-169.238,169.238zm390.719-203.691c-20.472,20.473-64.272,29.654-126.657,26.543-37.642-1.875-71.712-7.813-85.384-10.444-9.689-51.498-22.899-173.117 16.062-212.078 25.08-25.081 65.893-25.081 90.974,0 17.556,17.555 22.806,42.812 15.787,64.992-2.349-9.725-7.304-18.944-14.881-26.521-21.961-21.961-57.696-21.962-79.661,0-15.889,15.89-22.913,46.532-20.874,91.077 1.454,31.795 6.999,58.994 7.235,60.136 0.791,3.841 3.77,6.855 7.601,7.691 1.133,0.247 28.1,6.072 59.795,7.667 5.284,0.266 10.37,0.399 15.268,0.399 36.236,0 61.856-7.274 76.265-21.681 21.961-21.962 21.961-57.698 0-79.66-7.596-7.596-16.842-12.559-26.594-14.901 6.249-1.988 12.832-3.035 19.578-3.035 17.183,0 33.338,6.691 45.487,18.842 12.15,12.15 18.842,28.304 18.842,45.487s-6.693,33.337-18.843,45.486z"/>
</svg>
